<?xml version="1.0" encoding="UTF-8" standalone="no"?>
<!-- Created with Inkscape (http://www.inkscape.org/) -->

<svg
   xmlns:dc="http://purl.org/dc/elements/1.1/"
   xmlns:cc="http://creativecommons.org/ns#"
   xmlns:rdf="http://www.w3.org/1999/02/22-rdf-syntax-ns#"
   xmlns:svg="http://www.w3.org/2000/svg"
   xmlns="http://www.w3.org/2000/svg"
   xmlns:sodipodi="http://sodipodi.sourceforge.net/DTD/sodipodi-0.dtd"
   xmlns:inkscape="http://www.inkscape.org/namespaces/inkscape"
   width="297mm"
   height="210mm"
   viewBox="0 0 1052.3622 744.09448"
   id="svg2"
   version="1.1"
   inkscape:version="0.91 r13725"
   sodipodi:docname="case.svg"
   inkscape:export-filename="/Users/sven/Desktop/ChristmasMelody/case.png"
   inkscape:export-xdpi="70.008598"
   inkscape:export-ydpi="70.008598">
  <defs
     id="defs4" />
  <sodipodi:namedview
     id="base"
     pagecolor="#ffffff"
     bordercolor="#666666"
     borderopacity="1.0"
     inkscape:pageopacity="0.0"
     inkscape:pageshadow="2"
     inkscape:zoom="7.7249357"
     inkscape:cx="142.44402"
     inkscape:cy="603.26803"
     inkscape:document-units="mm"
     inkscape:current-layer="layer1"
     showgrid="false"
     inkscape:window-width="1440"
     inkscape:window-height="856"
     inkscape:window-x="-1"
     inkscape:window-y="1"
     inkscape:window-maximized="0"
     showguides="true"
     inkscape:guide-bbox="true">
    <inkscape:grid
       type="xygrid"
       id="grid4170" />
  </sodipodi:namedview>
  <metadata
     id="metadata7">
    <rdf:RDF>
      <cc:Work
         rdf:about="">
        <dc:format>image/svg+xml</dc:format>
        <dc:type
           rdf:resource="http://purl.org/dc/dcmitype/StillImage" />
        <dc:title />
      </cc:Work>
    </rdf:RDF>
  </metadata>
  <g
     inkscape:groupmode="layer"
     id="layer4"
     inkscape:label="Working"
     style="display:none">
    <rect
       transform="translate(0,-308.26772)"
       style="display:inline;opacity:1;fill:#000000;fill-opacity:1;stroke:#ff0000;stroke-width:0.5324651;stroke-linecap:round;stroke-linejoin:round;stroke-miterlimit:10;stroke-dasharray:none;stroke-opacity:1"
       id="rect4391"
       width="212.06596"
       height="282.9321"
       x="-519.84991"
       y="414.83316" />
    <rect
       inkscape:tile-y0="402.50893"
       inkscape:tile-x0="32.235915"
       style="display:inline;opacity:1;fill:#000080;fill-opacity:1;stroke:#ff0000;stroke-width:0.15895975;stroke-linecap:round;stroke-linejoin:round;stroke-miterlimit:10;stroke-dasharray:none;stroke-opacity:1"
       id="use4861"
       width="304.56546"
       height="17.557575"
       x="-707.15387"
       y="-511.17841"
       transform="matrix(0,-1,1,0,0,-308.26772)"
       inkscape:tile-cx="41.094183"
       inkscape:tile-cy="554.87114"
       inkscape:tile-w="17.716535"
       inkscape:tile-h="304.72442" />
    <rect
       transform="matrix(0,-1,1,0,0,-308.26772)"
       y="-511.53024"
       x="-712.12274"
       height="18.262939"
       width="311.64703"
       id="use5390"
       style="display:inline;opacity:1;fill:#000080;fill-opacity:1;stroke:#ff0000;stroke-width:0.1639953;stroke-linecap:round;stroke-linejoin:round;stroke-miterlimit:10;stroke-dasharray:none;stroke-opacity:1"
       inkscape:tile-x0="32.235915"
       inkscape:tile-y0="402.50893" />
    <rect
       transform="matrix(0,-1,1,0,0,-308.26772)"
       y="-476.0975"
       x="-712.12274"
       height="18.262939"
       width="311.64703"
       id="use5392"
       style="display:inline;opacity:1;fill:#000080;fill-opacity:1;stroke:#ff0000;stroke-width:0.1639953;stroke-linecap:round;stroke-linejoin:round;stroke-miterlimit:10;stroke-dasharray:none;stroke-opacity:1"
       inkscape:tile-x0="32.235915"
       inkscape:tile-y0="402.50893" />
    <rect
       transform="matrix(0,-1,1,0,0,-308.26772)"
       y="-440.66476"
       x="-712.12274"
       height="18.262939"
       width="311.64703"
       id="use5394"
       style="display:inline;opacity:1;fill:#000080;fill-opacity:1;stroke:#ff0000;stroke-width:0.1639953;stroke-linecap:round;stroke-linejoin:round;stroke-miterlimit:10;stroke-dasharray:none;stroke-opacity:1"
       inkscape:tile-x0="32.235915"
       inkscape:tile-y0="402.50893" />
    <rect
       transform="matrix(0,-1,1,0,0,-308.26772)"
       y="-405.23203"
       x="-712.12274"
       height="18.262939"
       width="311.64703"
       id="use5396"
       style="display:inline;opacity:1;fill:#000080;fill-opacity:1;stroke:#ff0000;stroke-width:0.1639953;stroke-linecap:round;stroke-linejoin:round;stroke-miterlimit:10;stroke-dasharray:none;stroke-opacity:1"
       inkscape:tile-x0="32.235915"
       inkscape:tile-y0="402.50893" />
    <rect
       transform="matrix(0,-1,1,0,0,-308.26772)"
       y="-369.79929"
       x="-712.12274"
       height="18.262939"
       width="311.64703"
       id="use5398"
       style="display:inline;opacity:1;fill:#000080;fill-opacity:1;stroke:#ff0000;stroke-width:0.1639953;stroke-linecap:round;stroke-linejoin:round;stroke-miterlimit:10;stroke-dasharray:none;stroke-opacity:1"
       inkscape:tile-x0="32.235915"
       inkscape:tile-y0="402.50893" />
    <rect
       transform="matrix(0,-1,1,0,0,-308.26772)"
       y="-334.36658"
       x="-712.12274"
       height="18.262939"
       width="311.64703"
       id="use5400"
       style="display:inline;opacity:1;fill:#000080;fill-opacity:1;stroke:#ff0000;stroke-width:0.1639953;stroke-linecap:round;stroke-linejoin:round;stroke-miterlimit:10;stroke-dasharray:none;stroke-opacity:1"
       inkscape:tile-x0="32.235915"
       inkscape:tile-y0="402.50893" />
    <rect
       transform="translate(0,-308.26772)"
       inkscape:tile-y0="414.56693"
       inkscape:tile-x0="16.966545"
       style="display:inline;opacity:1;fill:#000080;fill-opacity:1;stroke:#ff0000;stroke-width:0.14423399;stroke-linecap:round;stroke-linejoin:round;stroke-miterlimit:10;stroke-dasharray:none;stroke-opacity:1"
       id="use5418"
       width="240.80064"
       height="18.283041"
       x="-534.96729"
       y="423.14294" />
    <rect
       transform="translate(0,-308.26772)"
       inkscape:tile-y0="414.56693"
       inkscape:tile-x0="16.966545"
       style="display:inline;opacity:1;fill:#000080;fill-opacity:1;stroke:#ff0000;stroke-width:0.14423399;stroke-linecap:round;stroke-linejoin:round;stroke-miterlimit:10;stroke-dasharray:none;stroke-opacity:1"
       id="use5420"
       width="240.80064"
       height="18.283041"
       x="-534.96729"
       y="458.57584" />
    <rect
       transform="translate(0,-308.26772)"
       inkscape:tile-y0="414.56693"
       inkscape:tile-x0="16.966545"
       style="display:inline;opacity:1;fill:#000080;fill-opacity:1;stroke:#ff0000;stroke-width:0.14423399;stroke-linecap:round;stroke-linejoin:round;stroke-miterlimit:10;stroke-dasharray:none;stroke-opacity:1"
       id="use5422"
       width="240.80064"
       height="18.283041"
       x="-534.96729"
       y="494.0087" />
    <rect
       transform="translate(0,-308.26772)"
       inkscape:tile-y0="414.56693"
       inkscape:tile-x0="16.966545"
       style="display:inline;opacity:1;fill:#000080;fill-opacity:1;stroke:#ff0000;stroke-width:0.14423399;stroke-linecap:round;stroke-linejoin:round;stroke-miterlimit:10;stroke-dasharray:none;stroke-opacity:1"
       id="use5424"
       width="240.80064"
       height="18.283041"
       x="-534.96729"
       y="529.44159" />
    <rect
       transform="translate(0,-308.26772)"
       inkscape:tile-y0="414.56693"
       inkscape:tile-x0="16.966545"
       style="display:inline;opacity:1;fill:#000080;fill-opacity:1;stroke:#ff0000;stroke-width:0.14423399;stroke-linecap:round;stroke-linejoin:round;stroke-miterlimit:10;stroke-dasharray:none;stroke-opacity:1"
       id="use5426"
       width="240.80064"
       height="18.283041"
       x="-534.96729"
       y="564.87445" />
    <rect
       transform="translate(0,-308.26772)"
       inkscape:tile-y0="414.56693"
       inkscape:tile-x0="16.966545"
       style="display:inline;opacity:1;fill:#000080;fill-opacity:1;stroke:#ff0000;stroke-width:0.14423399;stroke-linecap:round;stroke-linejoin:round;stroke-miterlimit:10;stroke-dasharray:none;stroke-opacity:1"
       id="use5428"
       width="240.80064"
       height="18.283041"
       x="-534.96729"
       y="600.30731" />
    <rect
       transform="translate(0,-308.26772)"
       inkscape:tile-y0="414.56693"
       inkscape:tile-x0="16.966545"
       style="display:inline;opacity:1;fill:#000080;fill-opacity:1;stroke:#ff0000;stroke-width:0.14423399;stroke-linecap:round;stroke-linejoin:round;stroke-miterlimit:10;stroke-dasharray:none;stroke-opacity:1"
       id="use5430"
       width="240.80064"
       height="18.283041"
       x="-534.96729"
       y="635.74017" />
    <rect
       transform="translate(0,-308.26772)"
       inkscape:tile-y0="414.56693"
       inkscape:tile-x0="16.966545"
       style="display:inline;opacity:1;fill:#000080;fill-opacity:1;stroke:#ff0000;stroke-width:0.14423399;stroke-linecap:round;stroke-linejoin:round;stroke-miterlimit:10;stroke-dasharray:none;stroke-opacity:1"
       id="use5432"
       width="240.80064"
       height="18.283041"
       x="-534.96729"
       y="671.1731" />
    <rect
       transform="translate(0,-308.26772)"
       y="414.73871"
       x="-254.19635"
       height="283.12097"
       width="88.239098"
       id="rect5737"
       style="display:inline;opacity:1;fill:#000000;fill-opacity:1;stroke:#ff0000;stroke-width:0.34358254;stroke-linecap:round;stroke-linejoin:round;stroke-miterlimit:10;stroke-dasharray:none;stroke-opacity:1" />
    <rect
       transform="translate(0,-308.26772)"
       y="582.60345"
       x="-268.52029"
       height="18.285736"
       width="33.601677"
       id="rect5617"
       style="display:inline;opacity:1;fill:#000080;fill-opacity:1;stroke:#ff0000;stroke-width:0.05388295;stroke-linecap:round;stroke-linejoin:round;stroke-miterlimit:10;stroke-dasharray:none;stroke-opacity:1"
       inkscape:tile-x0="16.966545"
       inkscape:tile-y0="414.56693" />
    <rect
       transform="translate(0,-308.26772)"
       y="653.48663"
       x="-268.52029"
       height="18.285736"
       width="33.601677"
       id="rect5621"
       style="display:inline;opacity:1;fill:#000080;fill-opacity:1;stroke:#ff0000;stroke-width:0.05388295;stroke-linecap:round;stroke-linejoin:round;stroke-miterlimit:10;stroke-dasharray:none;stroke-opacity:1"
       inkscape:tile-x0="244.96656"
       inkscape:tile-y0="653.74015"
       inkscape:tile-cx="361.89568"
       inkscape:tile-cy="662.59842"
       inkscape:tile-w="233.85825"
       inkscape:tile-h="17.716535" />
    <rect
       transform="translate(0,-308.26772)"
       inkscape:tile-y0="653.74015"
       inkscape:tile-x0="244.96656"
       style="display:inline;opacity:1;fill:#000080;fill-opacity:1;stroke:#ff0000;stroke-width:0.06130222;stroke-linecap:round;stroke-linejoin:round;stroke-miterlimit:10;stroke-dasharray:none;stroke-opacity:1"
       id="use5643"
       width="33.586311"
       height="23.678856"
       x="-268.51672"
       y="688.49353" />
    <rect
       transform="translate(0,-308.26772)"
       y="440.83728"
       x="-268.52029"
       height="18.285736"
       width="33.601677"
       id="rect5609"
       style="display:inline;opacity:1;fill:#000080;fill-opacity:1;stroke:#ff0000;stroke-width:0.05388295;stroke-linecap:round;stroke-linejoin:round;stroke-miterlimit:10;stroke-dasharray:none;stroke-opacity:1"
       inkscape:tile-x0="16.966545"
       inkscape:tile-y0="414.56693" />
    <rect
       transform="translate(0,-308.26772)"
       y="476.27881"
       x="-268.52029"
       height="18.285736"
       width="33.601677"
       id="rect5611"
       style="display:inline;opacity:1;fill:#000080;fill-opacity:1;stroke:#ff0000;stroke-width:0.05388295;stroke-linecap:round;stroke-linejoin:round;stroke-miterlimit:10;stroke-dasharray:none;stroke-opacity:1"
       inkscape:tile-x0="16.966545"
       inkscape:tile-y0="414.56693" />
    <rect
       transform="translate(0,-308.26772)"
       y="511.7204"
       x="-268.52029"
       height="18.285736"
       width="33.601677"
       id="rect5613"
       style="display:inline;opacity:1;fill:#000080;fill-opacity:1;stroke:#ff0000;stroke-width:0.05388295;stroke-linecap:round;stroke-linejoin:round;stroke-miterlimit:10;stroke-dasharray:none;stroke-opacity:1"
       inkscape:tile-x0="16.966545"
       inkscape:tile-y0="414.56693" />
    <rect
       transform="translate(0,-308.26772)"
       y="547.16199"
       x="-268.52029"
       height="18.285736"
       width="33.601677"
       id="rect5615"
       style="display:inline;opacity:1;fill:#000080;fill-opacity:1;stroke:#ff0000;stroke-width:0.05388295;stroke-linecap:round;stroke-linejoin:round;stroke-miterlimit:10;stroke-dasharray:none;stroke-opacity:1"
       inkscape:tile-x0="16.966545"
       inkscape:tile-y0="414.56693" />
    <rect
       transform="translate(0,-308.26772)"
       y="618.04498"
       x="-268.52029"
       height="18.285736"
       width="33.601677"
       id="rect5619"
       style="display:inline;opacity:1;fill:#000080;fill-opacity:1;stroke:#ff0000;stroke-width:0.05388295;stroke-linecap:round;stroke-linejoin:round;stroke-miterlimit:10;stroke-dasharray:none;stroke-opacity:1"
       inkscape:tile-x0="16.966545"
       inkscape:tile-y0="414.56693" />
    <rect
       transform="translate(0,-308.26772)"
       ry="0"
       rx="0"
       inkscape:tile-y0="414.56693"
       inkscape:tile-x0="16.966545"
       style="display:inline;opacity:1;fill:#000080;fill-opacity:1;stroke:#ff0000;stroke-width:0.15101629;stroke-linecap:round;stroke-linejoin:round;stroke-miterlimit:10;stroke-dasharray:none;stroke-opacity:1"
       id="rect5741"
       width="18.275354"
       height="311.66003"
       x="-219.21507"
       y="400.46921" />
    <rect
       transform="translate(0,-308.26772)"
       y="400.35107"
       x="-268.513"
       height="23.68725"
       width="33.598949"
       id="rect5607"
       style="display:inline;opacity:1;fill:#000080;fill-opacity:1;stroke:#ff0000;stroke-width:0.05645085;stroke-linecap:round;stroke-linejoin:round;stroke-miterlimit:10;stroke-dasharray:none;stroke-opacity:1"
       inkscape:tile-x0="16.966545"
       inkscape:tile-y0="414.56693"
       rx="0"
       ry="0" />
    <rect
       transform="translate(0,-308.26772)"
       y="400.46848"
       x="-183.78156"
       height="311.6615"
       width="17.92132"
       id="rect5743"
       style="display:inline;opacity:1;fill:#000080;fill-opacity:1;stroke:#ff0000;stroke-width:0.14954674;stroke-linecap:round;stroke-linejoin:round;stroke-miterlimit:10;stroke-dasharray:none;stroke-opacity:1"
       inkscape:tile-x0="16.966545"
       inkscape:tile-y0="414.56693"
       rx="0"
       ry="0" />
    <rect
       transform="translate(0,-308.26772)"
       y="733.61334"
       x="-519.96735"
       height="88.28508"
       width="212.30083"
       id="rect5745"
       style="display:inline;opacity:1;fill:#000000;fill-opacity:1;stroke:#ff0000;stroke-width:0.29760078;stroke-linecap:round;stroke-linejoin:round;stroke-miterlimit:10;stroke-dasharray:none;stroke-opacity:1" />
    <rect
       transform="translate(0,-308.26772)"
       y="786.33197"
       x="-534.96729"
       height="18.280972"
       width="240.80066"
       id="rect5747"
       style="display:inline;opacity:1;fill:#000080;fill-opacity:1;stroke:#ff0000;stroke-width:0.14422582;stroke-linecap:round;stroke-linejoin:round;stroke-miterlimit:10;stroke-dasharray:none;stroke-opacity:1"
       inkscape:tile-x0="16.966545"
       inkscape:tile-y0="414.56693" />
    <rect
       transform="matrix(0,-1,1,0,0,-308.26772)"
       y="-493.81567"
       x="-768.86493"
       height="18.261395"
       width="49.540916"
       id="use5751"
       style="display:inline;opacity:1;fill:#000080;fill-opacity:1;stroke:#ff0000;stroke-width:0.06538282;stroke-linecap:round;stroke-linejoin:round;stroke-miterlimit:10;stroke-dasharray:none;stroke-opacity:1"
       inkscape:tile-x0="32.235915"
       inkscape:tile-y0="402.50893" />
    <rect
       transform="matrix(0,-1,1,0,0,-308.26772)"
       y="-458.38187"
       x="-768.86493"
       height="18.261395"
       width="49.540916"
       id="use5779"
       style="display:inline;opacity:1;fill:#000080;fill-opacity:1;stroke:#ff0000;stroke-width:0.06538282;stroke-linecap:round;stroke-linejoin:round;stroke-miterlimit:10;stroke-dasharray:none;stroke-opacity:1"
       inkscape:tile-x0="32.235915"
       inkscape:tile-y0="402.50893" />
    <rect
       transform="matrix(0,-1,1,0,0,-308.26772)"
       y="-422.94788"
       x="-768.86493"
       height="18.261395"
       width="49.540916"
       id="use5781"
       style="display:inline;opacity:1;fill:#000080;fill-opacity:1;stroke:#ff0000;stroke-width:0.06538282;stroke-linecap:round;stroke-linejoin:round;stroke-miterlimit:10;stroke-dasharray:none;stroke-opacity:1"
       inkscape:tile-x0="32.235915"
       inkscape:tile-y0="402.50893" />
    <rect
       transform="matrix(0,-1,1,0,0,-308.26772)"
       y="-387.51385"
       x="-768.86493"
       height="18.261395"
       width="49.540916"
       id="use5783"
       style="display:inline;opacity:1;fill:#000080;fill-opacity:1;stroke:#ff0000;stroke-width:0.06538282;stroke-linecap:round;stroke-linejoin:round;stroke-miterlimit:10;stroke-dasharray:none;stroke-opacity:1"
       inkscape:tile-x0="32.235915"
       inkscape:tile-y0="402.50893" />
    <rect
       transform="matrix(0,-1,1,0,0,-308.26772)"
       y="-352.07986"
       x="-768.86493"
       height="18.261395"
       width="49.540916"
       id="use5785"
       style="display:inline;opacity:1;fill:#000080;fill-opacity:1;stroke:#ff0000;stroke-width:0.06538282;stroke-linecap:round;stroke-linejoin:round;stroke-miterlimit:10;stroke-dasharray:none;stroke-opacity:1"
       inkscape:tile-x0="32.235915"
       inkscape:tile-y0="402.50893" />
    <rect
       transform="matrix(0,-1,1,0,0,-308.26772)"
       y="-520.09265"
       x="-768.86469"
       height="9.452219"
       width="49.540401"
       id="use5787"
       style="display:inline;opacity:1;fill:#000080;fill-opacity:1;stroke:#ff0000;stroke-width:0.04703934;stroke-linecap:round;stroke-linejoin:round;stroke-miterlimit:10;stroke-dasharray:none;stroke-opacity:1"
       inkscape:tile-x0="32.235915"
       inkscape:tile-y0="402.50893" />
    <rect
       transform="matrix(0,-1,1,0,0,-308.26772)"
       y="-316.99347"
       x="-768.86469"
       height="9.452219"
       width="49.540401"
       id="use5789"
       style="display:inline;opacity:1;fill:#000080;fill-opacity:1;stroke:#ff0000;stroke-width:0.04703934;stroke-linecap:round;stroke-linejoin:round;stroke-miterlimit:10;stroke-dasharray:none;stroke-opacity:1"
       inkscape:tile-x0="32.235915"
       inkscape:tile-y0="402.50893" />
    <rect
       transform="translate(0,-308.26772)"
       style="display:inline;opacity:1;fill:#00ff00;fill-opacity:1;stroke:#ff0000;stroke-width:0.05950345;stroke-linecap:round;stroke-linejoin:round;stroke-miterlimit:10;stroke-dasharray:none;stroke-opacity:1"
       id="rect3421"
       width="14.113725"
       height="53.090103"
       x="-179.92894"
       y="600.6203" />
    <rect
       transform="translate(0,-308.26772)"
       y="458.888"
       x="-179.92894"
       height="53.090103"
       width="14.113725"
       id="rect3425"
       style="display:inline;opacity:1;fill:#00ff00;fill-opacity:1;stroke:#ff0000;stroke-width:0.05950345;stroke-linecap:round;stroke-linejoin:round;stroke-miterlimit:10;stroke-dasharray:none;stroke-opacity:1" />
    <rect
       transform="translate(0,-308.26772)"
       inkscape:tile-y0="414.56693"
       inkscape:tile-x0="16.966545"
       style="display:inline;opacity:1;fill:#000080;fill-opacity:1;stroke:#ff0000;stroke-width:0.14422582;stroke-linecap:round;stroke-linejoin:round;stroke-miterlimit:10;stroke-dasharray:none;stroke-opacity:1"
       id="rect5749"
       width="240.80066"
       height="18.280972"
       x="-534.96729"
       y="750.89886" />
  </g>
  <g
     inkscape:groupmode="layer"
     id="layer3"
     inkscape:label="Labels"
     style="display:none"
     transform="translate(0,-308.26772)">
    <text
       xml:space="preserve"
       style="font-style:normal;font-weight:normal;font-size:10px;line-height:125%;font-family:sans-serif;text-align:start;letter-spacing:0px;word-spacing:0px;text-anchor:start;fill:#000000;fill-opacity:1;stroke:none;stroke-width:1px;stroke-linecap:butt;stroke-linejoin:miter;stroke-opacity:1"
       x="49.396938"
       y="376.7413"
       id="text4157"
       sodipodi:linespacing="125%"
       inkscape:export-xdpi="119.98637"
       inkscape:export-ydpi="119.98637"><tspan
         sodipodi:role="line"
         id="tspan4159"
         x="49.396938"
         y="376.7413"
         style="font-size:10px;text-align:start;text-anchor:start;fill:#0000ff">deckel</tspan></text>
    <text
       xml:space="preserve"
       style="font-style:normal;font-weight:normal;font-size:10px;line-height:125%;font-family:sans-serif;text-align:start;letter-spacing:0px;word-spacing:0px;text-anchor:start;fill:#000000;fill-opacity:1;stroke:none;stroke-width:1px;stroke-linecap:butt;stroke-linejoin:miter;stroke-opacity:1"
       x="94.289627"
       y="446.49301"
       id="text4157-5"
       sodipodi:linespacing="125%"
       inkscape:export-xdpi="119.98637"
       inkscape:export-ydpi="119.98637"><tspan
         sodipodi:role="line"
         id="tspan4159-2"
         x="94.289627"
         y="446.49301"
         style="font-size:10px;text-align:start;text-anchor:start;fill:#0000ff">baum led</tspan></text>
    <text
       xml:space="preserve"
       style="font-style:normal;font-weight:normal;font-size:10px;line-height:125%;font-family:sans-serif;text-align:start;letter-spacing:0px;word-spacing:0px;text-anchor:start;fill:#000000;fill-opacity:1;stroke:none;stroke-width:1px;stroke-linecap:butt;stroke-linejoin:miter;stroke-opacity:1"
       x="554.55695"
       y="417.44229"
       id="text4157-5-3"
       sodipodi:linespacing="125%"
       inkscape:export-xdpi="119.98637"
       inkscape:export-ydpi="119.98637"><tspan
         sodipodi:role="line"
         id="tspan4159-2-1"
         x="554.55695"
         y="417.44229"
         style="font-size:10px;text-align:start;text-anchor:start;fill:#0000ff">seitenteile</tspan></text>
    <text
       sodipodi:linespacing="125%"
       id="text6130"
       y="415.06906"
       x="754.53607"
       style="font-style:normal;font-weight:normal;font-size:10px;line-height:125%;font-family:sans-serif;text-align:start;letter-spacing:0px;word-spacing:0px;text-anchor:start;fill:#000000;fill-opacity:1;stroke:none;stroke-width:1px;stroke-linecap:butt;stroke-linejoin:miter;stroke-opacity:1"
       xml:space="preserve"
       inkscape:export-xdpi="119.98637"
       inkscape:export-ydpi="119.98637"><tspan
         style="font-size:10px;text-align:start;text-anchor:start;fill:#0000ff"
         y="415.06906"
         x="754.53607"
         id="tspan6132"
         sodipodi:role="line">fronten</tspan></text>
    <text
       xml:space="preserve"
       style="font-style:normal;font-weight:normal;font-size:10px;line-height:125%;font-family:sans-serif;text-align:start;letter-spacing:0px;word-spacing:0px;text-anchor:start;fill:#000000;fill-opacity:1;stroke:none;stroke-width:1px;stroke-linecap:butt;stroke-linejoin:miter;stroke-opacity:1"
       x="886.76379"
       y="541.50488"
       id="text6134"
       sodipodi:linespacing="125%"
       inkscape:export-xdpi="119.98637"
       inkscape:export-ydpi="119.98637"><tspan
         sodipodi:role="line"
         id="tspan6136"
         x="886.76379"
         y="541.50488"
         style="font-size:10px;text-align:start;text-anchor:start;fill:#0000ff">usb</tspan></text>
    <text
       xml:space="preserve"
       style="font-style:normal;font-weight:normal;font-size:10px;line-height:125%;font-family:sans-serif;text-align:start;letter-spacing:0px;word-spacing:0px;text-anchor:start;display:inline;fill:#000000;fill-opacity:1;stroke:none;stroke-width:1px;stroke-linecap:butt;stroke-linejoin:miter;stroke-opacity:1"
       x="109.85892"
       y="635.47906"
       id="text4157-5-1"
       sodipodi:linespacing="125%"
       inkscape:export-xdpi="119.98637"
       inkscape:export-ydpi="119.98637"><tspan
         sodipodi:role="line"
         id="tspan4159-2-7"
         x="109.85892"
         y="635.47906"
         style="font-size:10px;text-align:start;text-anchor:start;fill:#0000ff">taster</tspan></text>
    <circle
       inkscape:export-ydpi="119.98637"
       inkscape:export-xdpi="119.98637"
       transform="matrix(-0.70710678,0.70710678,0.70710678,0.70710678,0,0)"
       style="display:inline;opacity:1;fill:#0000ff;fill-opacity:0.39102562;stroke:none;stroke-width:1;stroke-linecap:round;stroke-linejoin:round;stroke-miterlimit:10;stroke-dasharray:none;stroke-opacity:1"
       id="circle4494"
       cx="284.81821"
       cy="502.24161"
       r="48.720474" />
    <text
       sodipodi:linespacing="125%"
       id="text6126"
       y="560.49939"
       x="121.82018"
       style="font-style:normal;font-weight:normal;font-size:10px;line-height:125%;font-family:sans-serif;text-align:start;letter-spacing:0px;word-spacing:0px;text-anchor:start;display:inline;fill:#ffffff;fill-opacity:1;stroke:none;stroke-width:1px;stroke-linecap:butt;stroke-linejoin:miter;stroke-opacity:1"
       xml:space="preserve"
       inkscape:export-xdpi="119.98637"
       inkscape:export-ydpi="119.98637"><tspan
         style="font-size:10px;text-align:start;text-anchor:start;fill:#ffffff"
         y="560.49939"
         x="121.82018"
         id="tspan6128"
         sodipodi:role="line">lautsprecher</tspan></text>
  </g>
  <g
     inkscape:groupmode="layer"
     id="layer2"
     inkscape:label="Engraving"
     style="display:inline"
     transform="translate(0,-308.26772)">
    <path
       style="display:inline;fill:none;fill-opacity:1;stroke:#000000;stroke-opacity:1;stroke-width:0.26574803;stroke-miterlimit:4;stroke-dasharray:none"
       inkscape:connector-curvature="0"
       id="path4"
       d="m 218.40673,574.93309 c -0.28746,-1.43733 -2.01225,-2.29972 -3.44956,-2.01226 l -18.68523,4.88691 -10.06127,-5.7493 23.28465,-6.32424 c 1.43732,-0.28745 2.5872,-2.01225 2.01226,-3.44958 -0.57494,-1.43732 -2.01226,-2.58717 -3.44959,-2.01225 l -28.74649,7.76155 -8.91141,-5.17437 c 0.8624,-2.01225 1.14986,-4.0245 1.14986,-6.32423 0,-2.29971 -0.28746,-4.31196 -1.14986,-6.32421 l 8.91141,-5.17438 28.74649,7.76155 c 1.43733,0.28748 3.16213,-0.57492 3.44959,-2.01226 0.28746,-1.43731 -0.57494,-3.16211 -2.01226,-3.44956 l -23.28465,-6.32424 10.06127,-5.7493 18.68523,4.88691 c 1.43731,0.28745 3.1621,-0.57493 3.44956,-2.01226 0.28748,-1.43732 -0.57491,-3.16211 -2.01225,-3.44959 l -13.22339,-3.44957 11.4986,-6.61169 c 1.43733,-0.8624 1.72479,-2.58718 1.14987,-4.0245 -0.86239,-1.43733 -2.58719,-1.7248 -4.02452,-1.14988 l -11.4986,6.6117 3.44958,-13.22338 c 0.28747,-1.43733 -0.57493,-3.16212 -2.01225,-3.44958 -1.43733,-0.28746 -3.16212,0.57493 -3.44958,2.01225 l -4.8869,18.68523 -10.06128,5.7493 6.32424,-23.28467 c 0.28745,-1.43732 -0.57493,-3.16211 -2.01226,-3.44957 -1.43732,-0.28748 -3.16211,0.57492 -3.44959,2.01225 l -7.76155,28.74649 -8.91141,5.17437 c -2.87465,-3.44957 -6.61169,-5.46183 -10.92367,-6.32422 l 0,-10.34875 20.98494,-20.69747 c 1.14987,-1.14986 1.14987,-2.87465 0,-4.02451 -1.14986,-1.14985 -2.87465,-1.14985 -4.02451,0 l -16.96043,16.67296 0,-11.4986 13.79832,-13.79831 c 1.14986,-1.14985 1.14986,-2.87465 0,-4.0245 -1.14986,-1.14988 -2.87465,-1.14988 -4.02451,0 l -9.77381,9.7738 0,-13.22339 c 0,-1.72479 -1.14986,-2.87465 -2.87465,-2.87465 -1.72478,0 -2.87465,1.14986 -2.87465,2.87465 l 0,13.22339 -9.48634,-9.48635 c -1.14986,-1.14985 -2.87465,-1.14985 -4.02451,0 -1.14985,1.14987 -1.14985,2.87465 0,4.02452 l 13.51085,13.79832 0,11.4986 -16.96042,-16.96044 c -1.14987,-1.14985 -2.87465,-1.14985 -4.02452,0 -1.14986,1.14986 -1.14986,2.87465 0,4.02451 l 20.98494,20.98494 0,10.34873 c -4.31197,0.57494 -8.04901,2.87465 -10.92366,6.32424 l -8.91141,-5.17437 -7.76156,-28.7465 c -0.28747,-1.43732 -2.01226,-2.58719 -3.44958,-2.01225 -1.43733,0.28746 -2.58719,2.01225 -2.01225,3.44958 l 6.32422,23.28465 -10.06127,-5.74929 -4.8869,-18.68523 c -0.28747,-1.43732 -2.01225,-2.58717 -3.44959,-2.01225 -1.43731,0.28747 -2.58718,2.01225 -2.01224,3.44958 l 3.44958,13.2234 -11.498602,-6.6117 c -1.43733,-0.8624 -3.16213,-0.28748 -4.02452,1.14985 -0.8624,1.43732 -0.28746,3.16211 1.14987,4.02452 l 11.498602,6.61169 -13.223392,3.44958 c -1.437344,0.28746 -2.587195,2.01225 -2.01227,3.44957 0.287469,1.43733 2.01227,2.29973 3.44958,2.01225 l 18.685232,-4.8869 10.06127,5.7493 -23.284652,6.32423 c -1.7248,0 -2.5872,1.43733 -2.01226,3.16211 0.28746,1.43734 2.01226,2.29974 3.44958,2.01226 l 28.746502,-7.76155 8.91141,5.17438 c -0.86239,2.01225 -1.14986,4.0245 -1.14986,6.32421 0,2.29973 0.28747,4.31198 1.14986,6.32423 l -8.91141,5.17437 -28.746502,-7.76155 c -1.72479,-0.28746 -3.16212,0.57493 -3.44958,2.01225 -0.28746,1.43733 0.57493,3.16213 2.01226,3.44958 l 23.284652,6.32424 -10.06127,5.7493 -18.685232,-4.88691 c -1.43731,-0.28746 -3.162111,0.57493 -3.44958,2.01226 -0.287468,1.43732 0.574926,3.16211 2.01227,3.44957 l 13.223392,3.44958 -11.498602,6.6117 c -1.43733,0.8624 -1.72479,2.58719 -1.14987,4.0245 0.86239,1.43734 2.58719,1.7248 4.02452,1.14987 l 11.498602,-6.6117 -3.44958,13.22339 c -0.28747,1.43733 0.57493,3.16211 2.01224,3.44959 1.43734,0.28745 3.16212,-0.57494 3.44959,-2.01226 l 4.8869,-18.68523 10.06127,-5.7493 -6.32422,23.28466 c -0.28747,1.43733 0.57492,3.16213 2.01225,3.44958 1.43732,0.28746 3.16211,-0.57493 3.44958,-2.01225 l 7.76156,-28.74649 8.91141,-5.17438 c 2.87465,3.44958 6.61169,5.46184 10.92366,6.32423 l 0,10.34874 -20.98494,20.69748 c -1.14986,1.14987 -1.14986,2.87465 0,4.02452 1.14987,1.14985 2.87465,1.14985 4.02452,0 l 16.96042,-16.96045 0,11.4986 -13.51085,13.51086 c -1.14985,1.14985 -1.14985,2.87465 0,4.0245 1.14986,1.14987 2.87465,1.14987 4.02451,0 l 9.48634,-9.48633 0,13.51085 c 0,1.72478 1.14987,2.87465 2.87465,2.87465 1.72479,0 2.87465,-1.14987 2.87465,-2.87465 l 0,-13.22339 9.48634,9.48635 c 1.14988,1.14985 2.87465,1.14985 4.02452,0 1.14986,-1.14987 1.14986,-2.87465 0,-4.02451 l -13.51086,-13.79833 0,-11.4986 16.96043,16.96045 c 1.14986,1.14985 2.87465,1.14985 4.02451,0 1.14987,-1.14987 1.14987,-2.87465 0,-4.02452 l -20.98494,-20.98494 0,-10.34873 c 4.31198,-0.57494 8.04902,-2.87465 10.92367,-6.32424 l 8.91141,5.17437 7.76155,28.7465 c 0.28748,1.14986 1.43733,2.01226 2.87465,2.01226 2.01227,0 3.16212,-1.7248 2.87465,-3.73705 l -6.32422,-23.28467 10.06127,5.7493 4.8869,18.68522 c 0.28747,1.43733 2.01227,2.29972 3.44959,2.01226 1.43733,-0.28746 2.58718,-2.01226 2.01225,-3.44958 l -3.44957,-13.22338 11.4986,6.61169 c 1.43732,0.8624 3.1621,0.28746 4.0245,-1.14987 0.86239,-1.43732 0.28746,-3.16211 -1.14985,-4.0245 l -11.4986,-6.6117 13.22337,-3.44957 c 1.43733,0.28746 2.29973,-1.43733 1.72479,-2.87465 z m -64.67961,-6.32424 c 0,0 0,0 0,0 0,0 0,0 0,0 -6.61168,0 -12.07352,-5.46183 -12.07352,-12.07353 0,-6.61169 5.46184,-12.07351 12.07352,-12.07351 0,0 0,0 0,0 0,0 0,0 0,0 6.61169,0 12.07353,5.46182 12.07353,12.07351 0,6.6117 -5.46184,12.07353 -12.07353,12.07353 z" />
  </g>
  <g
     inkscape:label="Cutting"
     inkscape:groupmode="layer"
     id="layer1"
     style="display:inline"
     transform="translate(0,-308.26772)">
    <path
       style="display:inline;opacity:1;fill:none;fill-opacity:0.39102562;stroke:#ff0000;stroke-width:0.26574802;stroke-linecap:round;stroke-linejoin:round;stroke-miterlimit:10;stroke-dasharray:none;stroke-opacity:1"
       d="M 47.564453 71.966797 L 47.564453 116.24805 L 33.382812 116.24805 L 33.382812 169.17188 L 47.564453 169.17188 L 47.564453 257.98047 L 33.382812 257.98047 L 33.382812 310.9043 L 47.564453 310.9043 L 47.564453 355.18555 L 259.91797 355.18555 L 259.91797 310.9043 L 274.10156 310.9043 L 274.10156 257.98047 L 259.91797 257.98047 L 259.91797 169.17188 L 274.10156 169.17188 L 274.10156 116.24805 L 259.91797 116.24805 L 259.91797 71.966797 L 47.564453 71.966797 z M 131.85742 107.56836 L 137.93164 113.64453 L 131.85742 119.7207 L 125.78125 113.64453 L 131.85742 107.56836 z M 175.70312 107.56836 L 181.7793 113.64453 L 175.70312 119.7207 L 169.62695 113.64453 L 175.70312 107.56836 z M 153.73047 128.49805 A 7.0866141 7.0866141 0 0 1 160.81641 135.58398 A 7.0866141 7.0866141 0 0 1 153.73047 142.67188 A 7.0866141 7.0866141 0 0 1 146.64258 135.58398 A 7.0866141 7.0866141 0 0 1 153.73047 128.49805 z M 131.85547 151.41406 L 137.93164 157.49023 L 131.85547 163.56641 L 125.78125 157.49023 L 131.85547 151.41406 z M 175.70312 151.41406 L 181.7793 157.49023 L 175.70312 163.56641 L 169.62695 157.49023 L 175.70312 151.41406 z M 153.0293 199.55273 A 48.720474 48.720474 0 0 1 188.19141 213.81641 L 176.04102 225.96875 A 31.535433 31.535433 0 0 1 176.04102 270.56641 A 31.535433 31.535433 0 0 1 131.44336 270.56641 A 31.535433 31.535433 0 0 1 131.44336 225.96875 L 119.29102 213.81641 A 48.720474 48.720474 0 0 1 153.0293 199.55273 z M 143.22656 323.60547 L 164.25586 323.60547 L 164.25586 328.68945 L 158.52539 328.68945 L 158.52539 333.25195 L 148.95898 333.25195 L 148.95898 328.68945 L 143.22656 328.68945 L 143.22656 323.60547 z "
       transform="translate(0,308.26772)"
       id="circle4496" />
    <circle
       style="opacity:1;fill:none;fill-opacity:1;stroke:#ff0000;stroke-width:0.29214364;stroke-linecap:round;stroke-linejoin:round;stroke-miterlimit:10;stroke-dasharray:none;stroke-opacity:1"
       id="path4378"
       cx="153.74155"
       cy="437.23798"
       inkscape:export-xdpi="119.98637"
       inkscape:export-ydpi="119.98637"
       r="0" />
    <path
       style="opacity:1;fill:none;fill-opacity:1;stroke:#ff0000;stroke-width:0.26574802;stroke-linecap:round;stroke-linejoin:round;stroke-miterlimit:10;stroke-dasharray:none;stroke-opacity:1"
       d="m 300.66019,378.39052 0,14.35743 -8.32031,0 0,8.31054 -15.11719,0 0,18.28321 15.11719,0 0,17.14843 -15.11719,0 0,18.28321 15.11719,0 0,17.15039 -15.11719,0 0,18.2832 15.11719,0 0,17.15039 -15.11719,0 0,18.2813 15.11719,0 0,17.1503 -15.11719,0 0,18.2832 15.11719,0 0,17.1504 -15.11719,0 0,18.2832 15.11719,0 0,17.1485 -15.11719,0 0,18.2832 15.11719,0 0,17.1504 -15.11719,0 0,18.2832 15.11719,0 0,8.3086 8.32031,0 0,14.3574 18.26367,0 0,-14.3574 17.16992,0 0,14.3574 18.26172,0 0,-14.3574 17.16992,0 0,14.3574 18.26368,0 0,-14.3574 17.16991,0 0,14.3574 18.26172,0 0,-14.3574 17.16993,0 0,14.3574 18.26367,0 0,-14.3574 17.16992,0 0,14.3574 18.26367,0 0,-14.3574 8.31836,0 0,-8.3086 13.61719,0 0,-18.2832 -13.61719,0 0,-17.1504 13.61719,0 0,-18.2832 -13.61719,0 0,-17.1485 13.61719,0 0,-18.2832 -13.61719,0 0,-17.1504 13.61719,0 0,-18.2832 -13.61719,0 0,-17.1503 13.61719,0 0,-18.2813 -13.61719,0 0,-17.15039 13.61719,0 0,-18.2832 -13.61719,0 0,-17.15039 13.61719,0 0,-18.28321 -13.61719,0 0,-17.14843 13.61719,0 0,-18.28321 -13.61719,0 0,-8.31054 -8.31836,0 0,-14.35743 -18.26367,0 0,14.35743 -17.16992,0 0,-14.35743 -18.26367,0 0,14.35743 -17.16993,0 0,-14.35743 -18.26172,0 0,14.35743 -17.16991,0 0,-14.35743 -18.26368,0 0,14.35743 -17.16992,0 0,-14.35743 -18.26172,0 0,14.35743 -17.16992,0 0,-14.35743 -18.26367,0 z"
       id="rect4328"
       inkscape:connector-curvature="0" />
    <path
       style="opacity:1;fill:none;fill-opacity:1;stroke:#ff0000;stroke-width:0.26574802;stroke-linecap:round;stroke-linejoin:round;stroke-miterlimit:10;stroke-dasharray:none;stroke-opacity:1"
       d="m 746.47668,380.3404 0,31.5761 -14.875,0 0,18.2793 15,0 0,17.1524 -15,0 0,18.2812 15,0 0,17.2852 212.30078,0 0,-17.2852 13.5,0 0,-18.2812 -13.5,0 0,-17.1524 13.5,0 0,-18.2793 -13.375,0 0,-31.5761 -9.45117,0 0,14.289 -16.82422,0 0,-14.289 -18.26172,0 0,14.289 -17.17383,0 0,-14.289 -18.26172,0 0,14.289 -17.17187,0 0,-14.289 -18.26172,0 0,14.289 -17.17187,0 0,-14.289 -18.26172,0 0,14.289 -17.17188,0 0,-14.289 -18.26172,0 0,14.289 -16.82421,0 0,-14.289 -9.45313,0 z"
       id="rect4384"
       inkscape:connector-curvature="0" />
    <path
       style="opacity:1;fill:none;fill-opacity:1;stroke:#ff0000;stroke-width:0.26574802;stroke-linecap:round;stroke-linejoin:round;stroke-miterlimit:10;stroke-dasharray:none;stroke-opacity:1"
       d="m 876.87647,518.51362 42.41864,0 0,35.367 -42.41864,0 z"
       id="rect4310"
       inkscape:connector-curvature="0" />
    <path
       id="path4412"
       d="m 746.47668,585.75462 0,-31.5761 -14.875,0 0,-18.2793 15,0 0,-17.1524 -15,0 0,-18.2812 15,0 0,-17.2852 212.30078,0 0,17.2852 13.5,0 0,18.2812 -13.5,0 0,17.1524 13.5,0 0,18.2793 -13.375,0 0,31.5761 -9.45117,0 0,-14.289 -16.82422,0 0,14.289 -18.26172,0 0,-14.289 -17.17383,0 0,14.289 -18.26172,0 0,-14.289 -17.17187,0 0,14.289 -18.26172,0 0,-14.289 -17.17187,0 0,14.289 -18.26172,0 0,-14.289 -17.17188,0 0,14.289 -18.26172,0 0,-14.289 -16.82421,0 0,14.289 -9.45313,0 z"
       style="opacity:1;fill:none;fill-opacity:1;stroke:#ff0000;stroke-width:0.26574802;stroke-linecap:round;stroke-linejoin:round;stroke-miterlimit:10;stroke-dasharray:none;stroke-opacity:1"
       inkscape:connector-curvature="0" />
    <path
       style="opacity:1;fill:none;fill-opacity:1;stroke:#ff0000;stroke-width:0.34358254;stroke-linecap:round;stroke-linejoin:round;stroke-miterlimit:10;stroke-dasharray:none;stroke-opacity:1"
       d="m 521.73571,378.42944 0,23.6875 14.31641,0 0,16.79883 -14.32422,0 0,18.28515 14.32422,0 0,17.15625 -14.32422,0 0,18.28516 14.32422,0 0,17.15625 -14.32422,0 0,18.28516 14.32422,0 0,17.15628 -14.32422,0 0,18.2871 14.32422,0 0,17.1543 -14.32422,0 0,18.2871 14.32422,0 0,17.1543 -14.32422,0 0,18.2871 14.32422,0 0,17.1543 -14.32422,0 0,18.2871 14.32422,0 0,16.7207 -14.32031,0 0,23.6797 33.58593,0 0,-14.3145 15.71485,0 0,14.2696 18.27539,0 0,-14.2696 17.15821,0 0,14.2715 17.92187,0 0,-58.4199 -14.06836,0 0,-53.0899 14.06836,0 0,-88.64253 -14.06836,0 0,-53.08984 14.06836,0 0,-58.41992 -17.92187,0 0,14.27148 -17.15821,0 0,-14.26953 -18.27539,0 0,14.26953 -15.69922,0 0,-14.38867 -33.59766,0 z"
       id="rect4428"
       inkscape:connector-curvature="0" />
    <path
       id="path4459"
       d="m 727.38399,378.42944 0,23.6875 -14.31641,0 0,16.79883 14.32422,0 0,18.28515 -14.32422,0 0,17.15625 14.32422,0 0,18.28516 -14.32422,0 0,17.15625 14.32422,0 0,18.28516 -14.32422,0 0,17.15628 14.32422,0 0,18.2871 -14.32422,0 0,17.1543 14.32422,0 0,18.2871 -14.32422,0 0,17.1543 14.32422,0 0,18.2871 -14.32422,0 0,17.1543 14.32422,0 0,18.2871 -14.32422,0 0,16.7207 14.32031,0 0,23.6797 -33.58593,0 0,-14.3145 -15.71485,0 0,14.2696 -18.27539,0 0,-14.2696 -17.15821,0 0,14.2715 -17.92187,0 0,-58.4199 14.06836,0 0,-53.0899 -14.06836,0 0,-88.64253 14.06836,0 0,-53.08984 -14.06836,0 0,-58.41992 17.92187,0 0,14.27148 17.15821,0 0,-14.26953 18.27539,0 0,14.26953 15.69922,0 0,-14.38867 33.59766,0 z"
       style="opacity:1;fill:none;fill-opacity:1;stroke:#ff0000;stroke-width:0.34358254;stroke-linecap:round;stroke-linejoin:round;stroke-miterlimit:10;stroke-dasharray:none;stroke-opacity:1"
       inkscape:connector-curvature="0" />
  </g>
</svg>
